<svg xmlns="http://www.w3.org/2000/svg" version="1.1" xmlns:xlink="http://www.w3.org/1999/xlink" xmlns:svgjs="http://svgjs.com/svgjs" width="1440" height="560" preserveAspectRatio="none" viewBox="0 0 1440 560"><g mask="url(&quot;#SvgjsMask1005&quot;)" fill="none"><rect width="1440" height="560" x="0" y="0" fill="url(#SvgjsLinearGradient1006)"></rect><path d="M1440 0L1218.53 0L1440 19.04z" fill="rgba(255, 255, 255, .1)"></path><path d="M1218.53 0L1440 19.04L1440 19.9L893 0z" fill="rgba(255, 255, 255, .075)"></path><path d="M893 0L1440 19.9L1440 37.01L535.74 0z" fill="rgba(255, 255, 255, .05)"></path><path d="M535.74 0L1440 37.01L1440 282.35L430.87 0z" fill="rgba(255, 255, 255, .025)"></path><path d="M0 560L85.08 560L0 373.5z" fill="rgba(0, 0, 0, .1)"></path><path d="M0 373.5L85.08 560L426.76 560L0 313.34000000000003z" fill="rgba(0, 0, 0, .075)"></path><path d="M0 313.34000000000003L426.76 560L725.61 560L0 276.09000000000003z" fill="rgba(0, 0, 0, .05)"></path><path d="M0 276.09000000000003L725.61 560L1052.21 560L0 171.51000000000005z" fill="rgba(0, 0, 0, .025)"></path></g><defs><mask id="SvgjsMask1005"><rect width="1440" height="560" fill="#ffffff"></rect></mask><linearGradient x1="15.28%" y1="-39.29%" x2="84.72%" y2="139.29%" gradientUnits="userSpaceOnUse" id="SvgjsLinearGradient1006"><stop stop-color="#0e2a47" offset="0"></stop><stop stop-color="#00459e" offset="1"></stop></linearGradient></defs></svg>